<?xml version="1.0" encoding="utf-8"?>
<!-- Generator: Adobe Illustrator 15.0.0, SVG Export Plug-In . SVG Version: 6.00 Build 0)  -->
<!DOCTYPE svg PUBLIC "-//W3C//DTD SVG 1.1//EN" "http://www.w3.org/Graphics/SVG/1.1/DTD/svg11.dtd">
<svg version="1.1" id="Слой_1" xmlns="http://www.w3.org/2000/svg" xmlns:xlink="http://www.w3.org/1999/xlink" x="0px" y="0px"
	 width="74.075px" height="73.93px" viewBox="11.573 26.07 74.075 73.93" enable-background="new 11.573 26.07 74.075 73.93"
	 xml:space="preserve">
<g id="Captions">
</g>
<g id="Your_Icon">
	<g>
		<path fill="#10263D" d="M52.44,60.842c-1.285-2.426-14.555-17.927-15.003-17.69c-0.448,0.237,4.928,19.922,6.216,22.35
			c1.286,2.426,4.296,3.351,6.722,2.063C52.802,66.28,53.728,63.27,52.44,60.842z"/>
	</g>
	<g>
		<path fill="#10263D" d="M69.479,62.838h-3.92c-0.766,0-1.389-0.621-1.389-1.389s0.623-1.389,1.389-1.389h3.92
			c0.768,0,1.39,0.621,1.39,1.389S70.247,62.838,69.479,62.838z"/>
	</g>
	<g>
		<path fill="#10263D" d="M48.61,26.07c-20.456,0-37.038,16.582-37.038,37.037c0,20.454,16.582,37.037,37.038,37.037
			c20.453,0,37.037-16.583,37.037-37.037C85.647,42.652,69.063,26.07,48.61,26.07z M48.61,35.477c15.26,0,27.63,12.37,27.63,27.63
			c0,1.863-0.188,3.685-0.54,5.444H60.058c-1.303,3.753-5.926,6.533-11.447,6.533c-5.522,0-10.146-2.78-11.45-6.533H21.518
			c-0.352-1.76-0.54-3.581-0.54-5.444C20.979,47.847,33.35,35.477,48.61,35.477z"/>
	</g>
	<g>
		<path fill="#10263D" d="M62.166,55.031c-0.479,0-0.946-0.249-1.204-0.694c-0.383-0.664-0.156-1.513,0.51-1.897l3.395-1.96
			c0.664-0.383,1.515-0.156,1.897,0.509c0.384,0.664,0.157,1.514-0.509,1.897l-3.395,1.96C62.64,54.971,62.401,55.031,62.166,55.031
			z"/>
	</g>
	<g>
		<path fill="#10263D" d="M48.61,48.2c-0.768,0-1.39-0.622-1.39-1.389v-3.919c0-0.768,0.622-1.389,1.39-1.389
			c0.766,0,1.389,0.622,1.389,1.389v3.919C49.999,47.578,49.376,48.2,48.61,48.2z"/>
	</g>
	<g>
		<path fill="#10263D" d="M56.391,50.179c-0.235,0-0.476-0.06-0.693-0.187c-0.665-0.384-0.892-1.233-0.509-1.897l1.96-3.394
			c0.384-0.665,1.233-0.891,1.897-0.508c0.664,0.384,0.891,1.233,0.508,1.897l-1.959,3.394C57.337,49.93,56.87,50.179,56.391,50.179
			z"/>
	</g>
	<g>
		<path fill="#10263D" d="M31.457,63.058h-3.919c-0.767,0-1.389-0.621-1.389-1.389s0.622-1.389,1.389-1.389h3.919
			c0.768,0,1.389,0.621,1.389,1.389S32.224,63.058,31.457,63.058z"/>
	</g>
	<g>
		<path fill="#10263D" d="M34.851,55.672c-0.235,0-0.474-0.061-0.693-0.186l-3.396-1.961c-0.664-0.383-0.892-1.232-0.509-1.897
			c0.384-0.663,1.233-0.892,1.897-0.509l3.396,1.96c0.664,0.385,0.892,1.233,0.509,1.897C35.798,55.422,35.331,55.672,34.851,55.672
			z"/>
	</g>
</g>
</svg>
